<?xml version="1.0"?>
<svg xmlns="http://www.w3.org/2000/svg" xmlns:xlink="http://www.w3.org/1999/xlink" xmlns:svgjs="http://svgjs.com/svgjs" version="1.1" width="512" height="512" x="0" y="0" viewBox="0 0 512 512" style="enable-background:new 0 0 512 512" xml:space="preserve" class=""><g>
<g xmlns="http://www.w3.org/2000/svg">
	<g>
		<path d="M405.222,418.555c-4.024,0-7.287,3.262-7.287,7.287v11.604c0.001,4.026,3.263,7.287,7.287,7.287s7.287-3.262,7.287-7.287    v-11.604C412.509,421.817,409.247,418.555,405.222,418.555z" fill="#c4ae87" data-original="#000000" style="" class=""/>
	</g>
</g>
<g xmlns="http://www.w3.org/2000/svg">
	<g>
		<path d="M402.552,231.458c-4.024,0-7.287,3.262-7.287,7.287v11.604c0,4.025,3.262,7.287,7.287,7.287    c4.025,0,7.287-3.262,7.287-7.287v-11.604C409.838,234.719,406.576,231.458,402.552,231.458z" fill="#c4ae87" data-original="#000000" style="" class=""/>
	</g>
</g>
<g xmlns="http://www.w3.org/2000/svg">
	<g>
		<path d="M159.609,238.884h-4.387v-77.511c0-6.608-5.376-11.985-11.985-11.985H86.83c-6.609,0-11.985,5.377-11.985,11.985v77.511    h-4.387c-4.024,0-7.287,3.262-7.287,7.287c0,4.025,3.262,7.287,7.287,7.287H86.83h56.408h16.371c4.024,0,7.287-3.262,7.287-7.287    C166.896,242.146,163.635,238.884,159.609,238.884z M140.649,238.885H89.419v-74.923h51.231V238.885z" fill="#c4ae87" data-original="#000000" style="" class=""/>
	</g>
</g>
<g xmlns="http://www.w3.org/2000/svg">
	<g>
		<path d="M281.771,238.884h-4.387v-77.511c0-6.608-5.376-11.985-11.985-11.985H208.99c-6.609,0-11.985,5.377-11.985,11.985v77.511    h-4.386c-4.024,0-7.287,3.262-7.287,7.287c0.002,4.025,3.264,7.287,7.288,7.287h16.371h56.408h16.371    c4.024,0,7.287-3.262,7.287-7.287C289.057,242.146,285.795,238.884,281.771,238.884z M262.812,238.885H211.58v-74.923h51.231    V238.885z" fill="#c4ae87" data-original="#000000" style="" class=""/>
	</g>
</g>
<g xmlns="http://www.w3.org/2000/svg">
	<g>
		<path d="M482.016,472.169h-5.334V310.603h1.558c4.024,0,7.287-3.262,7.287-7.287c0-4.025-3.262-7.287-7.287-7.287h-1.558V167.104    h8.836c6.867,0,12.454-5.586,12.454-12.454v-13.685c0-0.323-0.028-0.638-0.069-0.949c-0.01-0.074-0.022-0.148-0.034-0.222    c-0.047-0.29-0.108-0.575-0.188-0.852c-0.005-0.018-0.007-0.038-0.012-0.056l-0.015-0.051c-0.006-0.02-0.011-0.039-0.017-0.059    l-20.486-68.775c-1.465-4.917-6.072-8.352-11.204-8.352h-41.952c-4.024,0-7.287,3.262-7.287,7.287    c0,4.025,3.262,7.287,7.287,7.287h39.803l17.115,57.456H319.333v-17.743h12.071c5.575,0,10.111-4.536,10.111-10.111V89.012    c0-0.323-0.028-0.638-0.069-0.949c-0.01-0.074-0.022-0.148-0.034-0.222c-0.047-0.29-0.108-0.575-0.188-0.852    c-0.005-0.019-0.007-0.038-0.012-0.056l-0.015-0.051c-0.006-0.02-0.011-0.039-0.017-0.059l-3.158-10.601h40.311    c4.024,0,7.287-3.262,7.287-7.287s-3.262-7.287-7.287-7.287h-44.652L317.924,8.751c0-0.001,0-0.001,0-0.001    C316.39,3.599,311.563,0,306.187,0H49.359C43.981,0,39.156,3.599,37.62,8.751L14.365,86.824c-0.006,0.019-0.012,0.039-0.017,0.059    l-0.015,0.051c-0.006,0.019-0.007,0.038-0.012,0.056c-0.08,0.278-0.141,0.562-0.188,0.852c-0.012,0.074-0.024,0.147-0.034,0.222    c-0.041,0.311-0.069,0.627-0.069,0.949v16.813c0,5.575,4.536,10.111,10.111,10.111h12.105V296.03h-6.452    c-4.024,0-7.287,3.262-7.287,7.287c0,4.025,3.262,7.287,7.287,7.287h6.452v45.71c0,4.025,3.262,7.287,7.287,7.287    c4.025,0,7.287-3.262,7.287-7.287v-45.71h80.339v117.359H50.82v-25.149c0-4.025-3.262-7.287-7.287-7.287    c-4.025,0-7.287,3.262-7.287,7.287v69.356h-6.261c-10.981,0-19.916,8.935-19.916,19.916S19.003,512,29.984,512h452.031    c10.982,0,19.916-8.935,19.916-19.916S492.997,472.169,482.016,472.169z M483.398,148.252v4.279H319.333v-4.279H483.398z     M421.862,363.672h-62.284c-6.133,0-11.122,4.989-11.122,11.121v97.376H145.731V310.603h316.378v161.565h-29.124v-97.376    C432.984,368.66,427.995,363.672,421.862,363.672z M418.411,378.245v93.924h-55.381v-93.924H418.411z M462.109,283.216v12.814    H319.333v-12.814H462.109z M367.015,268.643v-62.011h47.412v62.011H367.015z M462.107,268.643H429v-65.9    c0-5.891-4.793-10.684-10.685-10.684h-55.189c-5.892,0-10.685,4.793-10.685,10.684v65.9h-33.109V167.104h142.776V268.643z     M51.091,14.573h253.361l20.002,67.153H31.089L51.091,14.573z M28.602,101.363v-5.065h298.34v5.065H28.602z M50.82,296.03V115.936    h253.94V296.03H50.82z M50.82,442.535h80.339v10.255H50.82V442.535z M50.82,467.476h80.339v4.693H50.82V467.476z M482.016,497.427    H29.984c-2.946,0-5.343-2.397-5.343-5.342s2.397-5.342,5.343-5.342h452.031c2.946,0,5.342,2.397,5.342,5.342    S484.963,497.427,482.016,497.427z" fill="#c4ae87" data-original="#000000" style="" class=""/>
	</g>
</g>
<g xmlns="http://www.w3.org/2000/svg">
	<g>
		<path d="M243.487,443.243v-46.927c0-5.082-4.134-9.215-9.216-9.215h-49.753c-5.082,0-9.216,4.134-9.216,9.215v46.927    c-3.919,0.12-7.062,3.326-7.062,7.275c0,4.025,3.262,7.287,7.287,7.287h8.973c0.006,0,0.012,0.001,0.019,0.001h49.753    c0.006,0,0.012-0.001,0.019-0.001h8.973c4.024,0,7.287-3.262,7.287-7.287C250.549,446.569,247.407,443.362,243.487,443.243z     M228.914,443.232h-39.039v-41.558h39.039V443.232z" fill="#c4ae87" data-original="#000000" style="" class=""/>
	</g>
</g>
<g xmlns="http://www.w3.org/2000/svg">
	<g>
		<path d="M330.908,443.243v-46.927c0-5.082-4.134-9.215-9.216-9.215h-49.753c-5.082,0-9.216,4.134-9.216,9.215v46.927    c-3.919,0.12-7.062,3.326-7.062,7.275c0,4.025,3.262,7.287,7.287,7.287h8.973c0.006,0,0.012,0.001,0.019,0.001h49.753    c0.006,0,0.012-0.001,0.019-0.001h8.973c4.024,0,7.287-3.262,7.287-7.287C337.969,446.569,334.826,443.362,330.908,443.243z     M316.333,443.232h-39.039v-41.558h39.039V443.232z" fill="#c4ae87" data-original="#000000" style="" class=""/>
	</g>
</g>
<g xmlns="http://www.w3.org/2000/svg">
</g>
<g xmlns="http://www.w3.org/2000/svg">
</g>
<g xmlns="http://www.w3.org/2000/svg">
</g>
<g xmlns="http://www.w3.org/2000/svg">
</g>
<g xmlns="http://www.w3.org/2000/svg">
</g>
<g xmlns="http://www.w3.org/2000/svg">
</g>
<g xmlns="http://www.w3.org/2000/svg">
</g>
<g xmlns="http://www.w3.org/2000/svg">
</g>
<g xmlns="http://www.w3.org/2000/svg">
</g>
<g xmlns="http://www.w3.org/2000/svg">
</g>
<g xmlns="http://www.w3.org/2000/svg">
</g>
<g xmlns="http://www.w3.org/2000/svg">
</g>
<g xmlns="http://www.w3.org/2000/svg">
</g>
<g xmlns="http://www.w3.org/2000/svg">
</g>
<g xmlns="http://www.w3.org/2000/svg">
</g>
</g></svg>
